<svg width="14" height="15" viewBox="0 0 14 15" fill="none" xmlns="http://www.w3.org/2000/svg">
<path d="M1.75 4H2.91667H12.25" stroke="#DC2626" stroke-width="1.2" stroke-linecap="round" stroke-linejoin="round"/>
<path d="M4.6665 4V2.83333C4.6665 2.52391 4.78942 2.22717 5.00821 2.00837C5.22701 1.78958 5.52375 1.66666 5.83317 1.66666H8.1665C8.47592 1.66666 8.77267 1.78958 8.99146 2.00837C9.21025 2.22717 9.33317 2.52391 9.33317 2.83333V4M11.0832 4V12.1667C11.0832 12.4761 10.9603 12.7728 10.7415 12.9916C10.5227 13.2104 10.2259 13.3333 9.9165 13.3333H4.08317C3.77375 13.3333 3.47701 13.2104 3.25821 12.9916C3.03942 12.7728 2.9165 12.4761 2.9165 12.1667V4H11.0832Z" stroke="#DC2626" stroke-width="1.2" stroke-linecap="round" stroke-linejoin="round"/>
<path d="M8.1665 6.91666V10.4167" stroke="#DC2626" stroke-width="1.2" stroke-linecap="round" stroke-linejoin="round"/>
<path d="M5.8335 6.91666V10.4167" stroke="#DC2626" stroke-width="1.2" stroke-linecap="round" stroke-linejoin="round"/>
</svg>
