<svg width="20" height="20" viewBox="0 0 20 20" fill="none" xmlns="http://www.w3.org/2000/svg">
<path d="M2.5 5H4.16667H17.5" stroke="#EF4444" stroke-width="2" stroke-linecap="round" stroke-linejoin="round"/>
<path d="M6.66699 5.00001V3.33334C6.66699 2.89131 6.84259 2.46739 7.15515 2.15483C7.46771 1.84227 7.89163 1.66667 8.33366 1.66667H11.667C12.109 1.66667 12.5329 1.84227 12.8455 2.15483C13.1581 2.46739 13.3337 2.89131 13.3337 3.33334V5.00001M15.8337 5.00001V16.6667C15.8337 17.1087 15.6581 17.5326 15.3455 17.8452C15.0329 18.1577 14.609 18.3333 14.167 18.3333H5.83366C5.39163 18.3333 4.96771 18.1577 4.65515 17.8452C4.34259 17.5326 4.16699 17.1087 4.16699 16.6667V5.00001H15.8337Z" stroke="#EF4444" stroke-width="2" stroke-linecap="round" stroke-linejoin="round"/>
</svg>
