<svg width="51" height="34" viewBox="0 0 51 34" fill="none" xmlns="http://www.w3.org/2000/svg">
<path fill-rule="evenodd" clip-rule="evenodd" d="M15.8071 17.1663C15.8939 17.3756 16.0651 17.5369 16.2759 17.6086L24.8684 20.5275C24.976 20.5641 25.0885 20.5755 25.198 20.5624C25.3021 20.55 25.4035 20.5156 25.4953 20.4599L32.9561 15.9319C33.1557 15.8107 33.2888 15.602 33.3171 15.3656C33.3455 15.1292 33.2661 14.8911 33.1016 14.7196L22.9302 4.11503C22.7565 3.934 22.5093 3.84869 22.2657 3.88663C22.0224 3.92444 21.8136 4.08047 21.7053 4.30535L15.8234 16.5189C15.7262 16.7208 15.7202 16.9571 15.8071 17.1663Z" fill="#FFCC02"/>
<path fill-rule="evenodd" clip-rule="evenodd" d="M25.6777 22.8198C25.6381 22.5264 25.4396 22.2791 25.1654 22.1814L2.51159 14.1085C2.1974 13.9965 1.85095 14.1041 1.65471 14.3748C1.45861 14.6454 1.45782 15.0169 1.6528 15.2935L12.8598 31.1948C13.0292 31.4351 13.3065 31.5505 13.5745 31.5186C13.6896 31.5049 13.803 31.4639 13.9053 31.394L25.3522 23.5655C25.5912 23.402 25.7172 23.1132 25.6777 22.8198Z" fill="#EFAE07"/>
<path fill-rule="evenodd" clip-rule="evenodd" d="M47.115 8.75648C46.8582 8.53667 46.4941 8.51047 46.2152 8.69173L13.2671 30.0974C12.9689 30.2912 12.8437 30.6709 12.9654 31.0139C13.0871 31.3569 13.4231 31.5701 13.7757 31.5299L39.3917 28.6022L39.3954 28.6017C39.6684 28.5692 39.9016 28.3909 40.0047 28.131L47.3368 9.65266C47.4613 9.33896 47.3715 8.97624 47.115 8.75648Z" fill="#FFCC02"/>
</svg>
